<svg width="286" height="396" viewBox="0 0 286 396" fill="none" xmlns="http://www.w3.org/2000/svg">
<path d="M72 428C-45.9985 428 -142 331.999 -142 214C-142 96.0015 -45.9985 0 72 0C189.999 0 286 96.0015 286 214C286 331.999 189.999 428 72 428ZM72 30.7546C-29.0425 30.7546 -111.245 112.958 -111.245 214C-111.245 315.042 -29.0425 397.245 72 397.245C173.042 397.245 255.245 315.042 255.245 214C255.245 112.958 173.042 30.7546 72 30.7546Z" fill="#6F48C9"/>
<path d="M164.903 159.861L-22.1852 305.944V159.861L73.9214 63.7501V159.861H164.903Z" fill="#6F48C9"/>
<path d="M139.273 140.639H91.8613V93.2266L139.273 140.639Z" fill="#6F48C9"/>
<path d="M165.546 184.847L166.186 304.662L88.7882 249.833L165.546 184.847Z" fill="#6F48C9"/>
<path d="M73.9216 263.254L125.82 305.301L73.9216 364.25L23.3058 305.301L73.9216 263.254Z" fill="#6F48C9"/>
</svg>
