<svg width="48" height="48" viewBox="0 0 48 48" fill="none" xmlns="http://www.w3.org/2000/svg">
<path fill-rule="evenodd" clip-rule="evenodd" d="M12 0C11.2044 0 10.4413 0.31607 9.87868 0.87868C9.31607 1.44129 9 2.20435 9 3V6H6C4.4087 6 2.88258 6.63214 1.75736 7.75736C0.632141 8.88258 0 10.4087 0 12V42C0 43.5913 0.632141 45.1174 1.75736 46.2426C2.88258 47.3679 4.4087 48 6 48H42C43.5913 48 45.1174 47.3679 46.2426 46.2426C47.3679 45.1174 48 43.5913 48 42V12C48 10.4087 47.3679 8.88258 46.2426 7.75736C45.1174 6.63214 43.5913 6 42 6H39V3C39 2.20435 38.6839 1.44129 38.1213 0.87868C37.5587 0.31607 36.7957 0 36 0C35.2043 0 34.4413 0.31607 33.8787 0.87868C33.3161 1.44129 33 2.20435 33 3V6H15V3C15 2.20435 14.6839 1.44129 14.1213 0.87868C13.5587 0.31607 12.7956 0 12 0ZM12 15C11.2044 15 10.4413 15.3161 9.87868 15.8787C9.31607 16.4413 9 17.2044 9 18C9 18.7956 9.31607 19.5587 9.87868 20.1213C10.4413 20.6839 11.2044 21 12 21H36C36.7957 21 37.5587 20.6839 38.1213 20.1213C38.6839 19.5587 39 18.7956 39 18C39 17.2044 38.6839 16.4413 38.1213 15.8787C37.5587 15.3161 36.7957 15 36 15H12Z" fill="#F7F8FA"/>
</svg>
