<svg width="154" height="51" viewBox="0 0 154 51" fill="none" xmlns="http://www.w3.org/2000/svg">
<path d="M55.1 7.5L60.825 16.825L66.65 7.5H69.15V25H66.45V17.825C66.45 16.775 66.4667 15.7833 66.5 14.85C66.55 13.9 66.625 12.9583 66.725 12.025L61.575 19.975H59.925L54.9 12.05C55 12.9833 55.0667 13.9167 55.1 14.85C55.1333 15.7833 55.15 16.775 55.15 17.825V25H52.45V7.5H55.1ZM81.3564 7.5C83.0564 7.5 84.3398 7.875 85.2064 8.625C86.0731 9.375 86.5064 10.4667 86.5064 11.9C86.5064 12.6833 86.3148 13.3833 85.9314 14C85.5648 14.6167 85.0148 15.1 84.2814 15.45C84.8314 15.6333 85.3398 15.9167 85.8064 16.3C86.2898 16.6667 86.6814 17.1417 86.9814 17.725C87.2814 18.3083 87.4314 19.0167 87.4314 19.85C87.4314 20.8667 87.2564 21.7083 86.9064 22.375C86.5564 23.0417 86.0981 23.5667 85.5314 23.95C84.9648 24.3333 84.3398 24.6083 83.6564 24.775C82.9731 24.925 82.2898 25 81.6064 25H74.0564V7.5H81.3564ZM80.9064 10.1H76.7564V14.75H81.2064C81.8898 14.7333 82.4898 14.525 83.0064 14.125C83.5398 13.725 83.8064 13.1583 83.8064 12.425C83.8064 11.5917 83.5231 11 82.9564 10.65C82.4064 10.2833 81.7231 10.1 80.9064 10.1ZM81.3314 17.35H76.7564V22.4H81.4564C82.4064 22.4 83.1814 22.1917 83.7814 21.775C84.3814 21.3417 84.6814 20.6833 84.6814 19.8C84.6814 19.1667 84.5064 18.675 84.1564 18.325C83.8064 17.975 83.3731 17.725 82.8564 17.575C82.3564 17.425 81.8481 17.35 81.3314 17.35ZM108.98 22.4V25H98.0799V7.5H100.78V22.4H108.98ZM124.132 11.875V25H121.532V22.975C121.132 23.525 120.541 24.0417 119.757 24.525C118.974 25.0083 118.066 25.25 117.032 25.25C115.932 25.25 114.924 24.9583 114.007 24.375C113.107 23.7917 112.391 22.9833 111.857 21.95C111.324 20.9167 111.057 19.7333 111.057 18.4C111.057 17.0667 111.332 15.8917 111.882 14.875C112.432 13.8417 113.191 13.0417 114.157 12.475C115.124 11.8917 116.224 11.6 117.457 11.6C118.374 11.6 119.174 11.8 119.857 12.2C120.557 12.6 121.116 13.0667 121.532 13.6V11.875H124.132ZM117.632 22.875C118.432 22.875 119.132 22.6833 119.732 22.3C120.332 21.9 120.799 21.3667 121.132 20.7C121.466 20.0167 121.632 19.25 121.632 18.4C121.632 17.5667 121.466 16.8167 121.132 16.15C120.799 15.4833 120.332 14.9583 119.732 14.575C119.132 14.175 118.432 13.975 117.632 13.975C116.866 13.975 116.182 14.1667 115.582 14.55C114.982 14.9333 114.516 15.4583 114.182 16.125C113.849 16.7917 113.682 17.55 113.682 18.4C113.682 19.25 113.849 20.0167 114.182 20.7C114.516 21.3667 114.982 21.9 115.582 22.3C116.182 22.6833 116.866 22.875 117.632 22.875ZM134.553 11.6C135.719 11.6 136.761 11.8917 137.678 12.475C138.611 13.0417 139.344 13.8417 139.878 14.875C140.411 15.8917 140.678 17.0667 140.678 18.4C140.678 19.7333 140.411 20.9167 139.878 21.95C139.344 22.9833 138.619 23.7917 137.703 24.375C136.786 24.9583 135.761 25.25 134.628 25.25C133.694 25.25 132.844 25.05 132.078 24.65C131.328 24.2333 130.736 23.7667 130.303 23.25V24.925H127.728V6.5H130.303V13.775C130.686 13.225 131.261 12.725 132.028 12.275C132.794 11.825 133.636 11.6 134.553 11.6ZM134.203 13.95C133.419 13.95 132.719 14.1417 132.103 14.525C131.503 14.9083 131.028 15.4417 130.678 16.125C130.344 16.7917 130.178 17.55 130.178 18.4C130.178 19.25 130.344 20.0167 130.678 20.7C131.028 21.3667 131.503 21.9 132.103 22.3C132.719 22.7 133.419 22.9 134.203 22.9C134.986 22.9 135.678 22.7 136.278 22.3C136.878 21.9 137.344 21.3667 137.678 20.7C138.028 20.0167 138.203 19.25 138.203 18.4C138.203 17.55 138.028 16.7917 137.678 16.125C137.344 15.4417 136.878 14.9083 136.278 14.525C135.678 14.1417 134.986 13.95 134.203 13.95ZM151.05 15.325C150.583 14.8583 150.05 14.475 149.45 14.175C148.866 13.875 148.325 13.725 147.825 13.725C147.475 13.725 147.125 13.7667 146.775 13.85C146.441 13.9333 146.158 14.0917 145.925 14.325C145.691 14.5417 145.575 14.8667 145.575 15.3C145.591 15.9 145.858 16.325 146.375 16.575C146.908 16.825 147.566 17.05 148.35 17.25C149.033 17.4333 149.7 17.6667 150.35 17.95C151 18.2167 151.533 18.6167 151.95 19.15C152.383 19.6667 152.6 20.4 152.6 21.35C152.6 22.1667 152.366 22.8667 151.9 23.45C151.45 24.0333 150.858 24.4833 150.125 24.8C149.408 25.1 148.65 25.25 147.85 25.25C146.9 25.25 145.958 25.0833 145.025 24.75C144.108 24.4 143.325 23.8083 142.675 22.975L144.425 21.475C144.875 21.9917 145.383 22.4 145.95 22.7C146.533 22.9833 147.241 23.125 148.075 23.125C148.391 23.125 148.708 23.075 149.025 22.975C149.341 22.8583 149.608 22.6833 149.825 22.45C150.058 22.2 150.175 21.8667 150.175 21.45C150.175 21.05 150.05 20.7417 149.8 20.525C149.566 20.2917 149.25 20.1083 148.85 19.975C148.45 19.825 148.008 19.6917 147.525 19.575C146.808 19.375 146.1 19.1333 145.4 18.85C144.716 18.55 144.141 18.1333 143.675 17.6C143.225 17.05 143 16.3083 143 15.375C143 14.5917 143.216 13.925 143.65 13.375C144.1 12.8083 144.683 12.375 145.4 12.075C146.116 11.7583 146.883 11.6 147.7 11.6C148.483 11.6 149.333 11.7667 150.25 12.1C151.166 12.4333 151.925 12.9667 152.525 13.7L151.05 15.325ZM52.715 41.6C52.715 41.84 52.79 42.065 52.94 42.275C53.1 42.485 53.365 42.59 53.735 42.59H55.61C55.98 42.59 56.24 42.5 56.39 42.32C56.55 42.13 56.63 41.915 56.63 41.675V41.51C56.63 41.04 56.905 40.805 57.455 40.805C58.005 40.805 58.28 41.04 58.28 41.51V41.69C58.28 42.11 58.21 42.455 58.07 42.725C57.94 42.995 57.74 43.23 57.47 43.43C56.94 43.81 56.41 44 55.88 44H53.36C52.83 44 52.315 43.81 51.815 43.43C51.575 43.23 51.39 42.98 51.26 42.68C51.13 42.37 51.065 42.015 51.065 41.615V37.34C51.065 36.53 51.315 35.93 51.815 35.54C52.065 35.36 52.32 35.22 52.58 35.12C52.85 35.01 53.11 34.955 53.36 34.955H55.88C56.12 34.955 56.385 35.005 56.675 35.105C56.965 35.195 57.235 35.32 57.485 35.48C57.725 35.65 57.915 35.885 58.055 36.185C58.205 36.485 58.28 36.84 58.28 37.25V39.275C58.28 39.505 58.21 39.71 58.07 39.89C57.94 40.07 57.695 40.16 57.335 40.16H54.095C53.735 40.16 53.545 39.925 53.525 39.455C53.525 38.985 53.715 38.75 54.095 38.75H56.645L56.63 37.355C56.63 37.105 56.55 36.88 56.39 36.68C56.24 36.47 55.98 36.365 55.61 36.365H53.735C53.365 36.365 53.1 36.47 52.94 36.68C52.79 36.88 52.715 37.105 52.715 37.355V41.6ZM63.251 44.09C63.231 44.09 63.206 44.085 63.176 44.075C63.146 44.075 63.116 44.075 63.086 44.075C63.036 44.075 62.966 44.075 62.876 44.075C62.786 44.075 62.701 44.07 62.621 44.06C62.451 44.05 62.306 44.005 62.186 43.925C62.066 43.835 61.981 43.73 61.931 43.61L59.411 35.87C59.361 35.66 59.386 35.475 59.486 35.315C59.596 35.145 59.766 35.02 59.996 34.94C60.066 34.92 60.136 34.905 60.206 34.895C60.276 34.885 60.336 34.88 60.386 34.88C60.696 34.88 60.911 35.05 61.031 35.39L62.126 38.795L63.281 42.365L65.531 35.39C65.641 35.04 65.841 34.865 66.131 34.865C66.241 34.865 66.381 34.89 66.551 34.94C66.811 35.01 66.991 35.13 67.091 35.3C67.191 35.46 67.206 35.65 67.136 35.87L64.631 43.61C64.541 43.89 64.306 44.04 63.926 44.06C63.906 44.06 63.881 44.06 63.851 44.06C63.831 44.07 63.811 44.075 63.791 44.075C63.711 44.085 63.641 44.09 63.581 44.09C63.521 44.09 63.466 44.09 63.416 44.09H63.251ZM70.1173 41.6C70.1173 41.84 70.1923 42.065 70.3423 42.275C70.5023 42.485 70.7673 42.59 71.1373 42.59H73.0123C73.3823 42.59 73.6423 42.5 73.7923 42.32C73.9523 42.13 74.0323 41.915 74.0323 41.675V41.51C74.0323 41.04 74.3073 40.805 74.8573 40.805C75.4073 40.805 75.6823 41.04 75.6823 41.51V41.69C75.6823 42.11 75.6123 42.455 75.4723 42.725C75.3423 42.995 75.1423 43.23 74.8723 43.43C74.3423 43.81 73.8123 44 73.2823 44H70.7623C70.2323 44 69.7173 43.81 69.2173 43.43C68.9773 43.23 68.7923 42.98 68.6623 42.68C68.5323 42.37 68.4673 42.015 68.4673 41.615V37.34C68.4673 36.53 68.7173 35.93 69.2173 35.54C69.4673 35.36 69.7223 35.22 69.9823 35.12C70.2523 35.01 70.5123 34.955 70.7623 34.955H73.2823C73.5223 34.955 73.7873 35.005 74.0773 35.105C74.3673 35.195 74.6373 35.32 74.8873 35.48C75.1273 35.65 75.3173 35.885 75.4573 36.185C75.6073 36.485 75.6823 36.84 75.6823 37.25V39.275C75.6823 39.505 75.6123 39.71 75.4723 39.89C75.3423 40.07 75.0973 40.16 74.7373 40.16H71.4973C71.1373 40.16 70.9473 39.925 70.9273 39.455C70.9273 38.985 71.1173 38.75 71.4973 38.75H74.0473L74.0323 37.355C74.0323 37.105 73.9523 36.88 73.7923 36.68C73.6423 36.47 73.3823 36.365 73.0123 36.365H71.1373C70.7673 36.365 70.5023 36.47 70.3423 36.68C70.1923 36.88 70.1173 37.105 70.1173 37.355V41.6ZM79.2433 43.37C79.2433 43.85 78.9683 44.09 78.4183 44.09C77.8683 44.09 77.5933 43.85 77.5933 43.37V37.34C77.5933 36.93 77.6583 36.575 77.7883 36.275C77.9183 35.975 78.1233 35.73 78.4033 35.54C78.9333 35.16 79.4633 34.97 79.9933 34.97H82.4083C82.9183 34.97 83.4483 35.16 83.9983 35.54C84.5383 35.92 84.8083 36.52 84.8083 37.34V43.37C84.8083 43.85 84.5333 44.09 83.9833 44.09C83.4333 44.09 83.1583 43.85 83.1583 43.37V37.475C83.1583 37.215 83.0783 36.965 82.9183 36.725L82.9333 36.74C82.8033 36.5 82.5383 36.38 82.1383 36.38H80.2633C79.8533 36.38 79.5833 36.5 79.4533 36.74C79.3133 36.95 79.2433 37.195 79.2433 37.475V43.37ZM88.7136 36.38V41.84C88.7136 42.1 88.7686 42.3 88.8786 42.44C88.9886 42.58 89.2236 42.65 89.5836 42.65H89.9736C90.3636 42.65 90.5486 42.88 90.5286 43.34C90.5286 43.81 90.3436 44.045 89.9736 44.045H89.4786C89.1586 44.045 88.8586 44.005 88.5786 43.925C88.2986 43.835 88.0286 43.71 87.7686 43.55V43.565C87.2786 43.245 87.0336 42.675 87.0336 41.855V36.38H86.4486C86.0886 36.38 85.8986 36.145 85.8786 35.675C85.8786 35.205 86.0686 34.97 86.4486 34.97H87.0336V33.365C87.0336 32.885 87.3186 32.645 87.8886 32.645C88.4386 32.645 88.7136 32.885 88.7136 33.365V34.97H89.9586C90.3486 34.97 90.5336 35.205 90.5136 35.675C90.5136 36.145 90.3286 36.38 89.9586 36.38H88.7136ZM96.7066 38.75C96.9566 38.75 97.2216 38.81 97.5016 38.93C97.7916 39.04 98.0616 39.18 98.3116 39.35H98.2966C98.5566 39.54 98.7566 39.785 98.8966 40.085C99.0366 40.385 99.1066 40.745 99.1066 41.165V41.615C99.1066 42.435 98.8366 43.04 98.2966 43.43C98.0366 43.63 97.7716 43.775 97.5016 43.865C97.2316 43.955 96.9666 44 96.7066 44H94.1566C93.8966 44 93.6316 43.955 93.3616 43.865C93.0916 43.775 92.8266 43.63 92.5666 43.43C92.0266 43.05 91.7566 42.445 91.7566 41.615V41.435C91.7566 41.005 92.0316 40.795 92.5816 40.805C93.1416 40.805 93.4216 41.015 93.4216 41.435V41.6C93.4216 41.84 93.4966 42.065 93.6466 42.275C93.7966 42.485 94.0616 42.59 94.4416 42.59H96.4216C96.8016 42.59 97.0666 42.485 97.2166 42.275C97.3666 42.065 97.4416 41.84 97.4416 41.6V41.18C97.4416 41.05 97.4216 40.925 97.3816 40.805C97.3516 40.685 97.2966 40.58 97.2166 40.49C97.1366 40.39 97.0316 40.31 96.9016 40.25C96.7716 40.19 96.6116 40.16 96.4216 40.16H94.2316C93.7216 40.16 93.1866 39.98 92.6266 39.62C92.0966 39.28 91.8316 38.695 91.8316 37.865V37.355C91.8316 36.955 91.9016 36.605 92.0416 36.305C92.1816 35.995 92.3816 35.745 92.6416 35.555H92.6266C92.8766 35.385 93.1416 35.245 93.4216 35.135C93.7016 35.025 93.9716 34.97 94.2316 34.97H96.6316C96.8916 34.97 97.1566 35.025 97.4266 35.135C97.7066 35.245 97.9766 35.385 98.2366 35.555H98.2216C98.4816 35.745 98.6816 35.995 98.8216 36.305C98.9616 36.605 99.0316 36.955 99.0316 37.355V37.49C99.0316 37.7 98.9616 37.855 98.8216 37.955C98.6816 38.045 98.4766 38.095 98.2066 38.105C97.6566 38.115 97.3816 37.91 97.3816 37.49V37.37C97.3816 37.12 97.3016 36.895 97.1416 36.695C96.9916 36.485 96.7316 36.38 96.3616 36.38H94.5016C94.1316 36.38 93.8666 36.485 93.7066 36.695C93.5566 36.895 93.4816 37.12 93.4816 37.37V37.73C93.4816 37.99 93.5566 38.225 93.7066 38.435C93.8666 38.645 94.1316 38.75 94.5016 38.75H96.7066Z" fill="#8257E5"/>
<path d="M21 46C9.42071 46 0 36.5793 0 25C0 13.4207 9.42071 4 21 4C32.5793 4 42 13.4207 42 25C42 36.5793 32.5793 46 21 46ZM21 7.01798C11.0846 7.01798 3.01798 15.0846 3.01798 25C3.01798 34.9154 11.0846 42.982 21 42.982C30.9154 42.982 38.982 34.9154 38.982 25C38.982 15.0846 30.9154 7.01798 21 7.01798V7.01798Z" fill="#8257E5"/>
<path d="M30.1164 19.6873L11.7573 34.0226V19.6873L21.1883 10.2559V19.6873H30.1164Z" fill="#8257E5"/>
<path d="M27.6018 17.801H22.9492V13.1484L27.6018 17.801Z" fill="#8257E5"/>
<path d="M30.1798 22.1392L30.2425 33.8967L22.6475 28.5164L30.1798 22.1392Z" fill="#8257E5"/>
<path d="M21.1887 29.8333L26.2815 33.9595L21.1887 39.7442L16.2217 33.9595L21.1887 29.8333Z" fill="#8257E5"/>
</svg>
