<svg width="121" height="36" viewBox="0 0 121 36" fill="none" xmlns="http://www.w3.org/2000/svg">
<path d="M42.08 6.76794L46.66 14.2279L51.32 6.76794H53.32V20.7679H51.16V15.0279C51.16 14.1879 51.1733 13.3946 51.2 12.6479C51.24 11.8879 51.3 11.1346 51.38 10.3879L47.26 16.7479H45.94L41.92 10.4079C42 11.1546 42.0533 11.9013 42.08 12.6479C42.1067 13.3946 42.12 14.1879 42.12 15.0279V20.7679H39.96V6.76794H42.08ZM63.0852 6.76794C64.4452 6.76794 65.4718 7.06794 66.1652 7.66794C66.8585 8.26794 67.2052 9.14128 67.2052 10.2879C67.2052 10.9146 67.0518 11.4746 66.7452 11.9679C66.4518 12.4613 66.0118 12.8479 65.4252 13.1279C65.8652 13.2746 66.2718 13.5013 66.6452 13.8079C67.0318 14.1013 67.3452 14.4813 67.5852 14.9479C67.8252 15.4146 67.9452 15.9813 67.9452 16.6479C67.9452 17.4613 67.8052 18.1346 67.5252 18.6679C67.2452 19.2013 66.8785 19.6213 66.4252 19.9279C65.9718 20.2346 65.4718 20.4546 64.9252 20.5879C64.3785 20.7079 63.8318 20.7679 63.2852 20.7679H57.2452V6.76794H63.0852ZM62.7252 8.84794H59.4052V12.5679H62.9652C63.5118 12.5546 63.9918 12.3879 64.4052 12.0679C64.8318 11.7479 65.0452 11.2946 65.0452 10.7079C65.0452 10.0413 64.8185 9.56794 64.3652 9.28794C63.9252 8.99461 63.3785 8.84794 62.7252 8.84794ZM63.0652 14.6479H59.4052V18.6879H63.1652C63.9252 18.6879 64.5452 18.5213 65.0252 18.1879C65.5052 17.8413 65.7452 17.3146 65.7452 16.6079C65.7452 16.1013 65.6052 15.7079 65.3252 15.4279C65.0452 15.1479 64.6985 14.9479 64.2852 14.8279C63.8852 14.7079 63.4785 14.6479 63.0652 14.6479ZM85.1839 18.6879V20.7679H76.4639V6.76794H78.6239V18.6879H85.1839ZM97.3059 10.2679V20.7679H95.2259V19.1479C94.9059 19.5879 94.4326 20.0013 93.8059 20.3879C93.1793 20.7746 92.4526 20.9679 91.6259 20.9679C90.7459 20.9679 89.9393 20.7346 89.2059 20.2679C88.4859 19.8013 87.9126 19.1546 87.4859 18.3279C87.0593 17.5013 86.8459 16.5546 86.8459 15.4879C86.8459 14.4213 87.0659 13.4813 87.5059 12.6679C87.9459 11.8413 88.5526 11.2013 89.3259 10.7479C90.0993 10.2813 90.9793 10.0479 91.9659 10.0479C92.6993 10.0479 93.3393 10.2079 93.8859 10.5279C94.4459 10.8479 94.8926 11.2213 95.2259 11.6479V10.2679H97.3059ZM92.1059 19.0679C92.7459 19.0679 93.3059 18.9146 93.7859 18.6079C94.2659 18.2879 94.6393 17.8613 94.9059 17.3279C95.1726 16.7813 95.3059 16.1679 95.3059 15.4879C95.3059 14.8213 95.1726 14.2213 94.9059 13.6879C94.6393 13.1546 94.2659 12.7346 93.7859 12.4279C93.3059 12.1079 92.7459 11.9479 92.1059 11.9479C91.4926 11.9479 90.9459 12.1013 90.4659 12.4079C89.9859 12.7146 89.6126 13.1346 89.3459 13.6679C89.0793 14.2013 88.9459 14.8079 88.9459 15.4879C88.9459 16.1679 89.0793 16.7813 89.3459 17.3279C89.6126 17.8613 89.9859 18.2879 90.4659 18.6079C90.9459 18.9146 91.4926 19.0679 92.1059 19.0679ZM105.642 10.0479C106.576 10.0479 107.409 10.2813 108.142 10.7479C108.889 11.2013 109.476 11.8413 109.902 12.6679C110.329 13.4813 110.542 14.4213 110.542 15.4879C110.542 16.5546 110.329 17.5013 109.902 18.3279C109.476 19.1546 108.896 19.8013 108.162 20.2679C107.429 20.7346 106.609 20.9679 105.702 20.9679C104.956 20.9679 104.276 20.8079 103.662 20.4879C103.062 20.1546 102.589 19.7813 102.242 19.3679V20.7079H100.182V5.96794H102.242V11.7879C102.549 11.3479 103.009 10.9479 103.622 10.5879C104.236 10.2279 104.909 10.0479 105.642 10.0479ZM105.362 11.9279C104.736 11.9279 104.176 12.0813 103.682 12.3879C103.202 12.6946 102.822 13.1213 102.542 13.6679C102.276 14.2013 102.142 14.8079 102.142 15.4879C102.142 16.1679 102.276 16.7813 102.542 17.3279C102.822 17.8613 103.202 18.2879 103.682 18.6079C104.176 18.9279 104.736 19.0879 105.362 19.0879C105.989 19.0879 106.542 18.9279 107.022 18.6079C107.502 18.2879 107.876 17.8613 108.142 17.3279C108.422 16.7813 108.562 16.1679 108.562 15.4879C108.562 14.8079 108.422 14.2013 108.142 13.6679C107.876 13.1213 107.502 12.6946 107.022 12.3879C106.542 12.0813 105.989 11.9279 105.362 11.9279ZM118.84 13.0279C118.467 12.6546 118.04 12.3479 117.56 12.1079C117.093 11.8679 116.66 11.7479 116.26 11.7479C115.98 11.7479 115.7 11.7813 115.42 11.8479C115.153 11.9146 114.927 12.0413 114.74 12.2279C114.553 12.4013 114.46 12.6613 114.46 13.0079C114.473 13.4879 114.687 13.8279 115.1 14.0279C115.527 14.2279 116.053 14.4079 116.68 14.5679C117.227 14.7146 117.76 14.9013 118.28 15.1279C118.8 15.3413 119.227 15.6613 119.56 16.0879C119.907 16.5013 120.08 17.0879 120.08 17.8479C120.08 18.5013 119.893 19.0613 119.52 19.5279C119.16 19.9946 118.687 20.3546 118.1 20.6079C117.527 20.8479 116.92 20.9679 116.28 20.9679C115.52 20.9679 114.767 20.8346 114.02 20.5679C113.287 20.2879 112.66 19.8146 112.14 19.1479L113.54 17.9479C113.9 18.3613 114.307 18.6879 114.76 18.9279C115.227 19.1546 115.793 19.2679 116.46 19.2679C116.713 19.2679 116.967 19.2279 117.22 19.1479C117.473 19.0546 117.687 18.9146 117.86 18.7279C118.047 18.5279 118.14 18.2613 118.14 17.9279C118.14 17.6079 118.04 17.3613 117.84 17.1879C117.653 17.0013 117.4 16.8546 117.08 16.7479C116.76 16.6279 116.407 16.5213 116.02 16.4279C115.447 16.2679 114.88 16.0746 114.32 15.8479C113.773 15.6079 113.313 15.2746 112.94 14.8479C112.58 14.4079 112.4 13.8146 112.4 13.0679C112.4 12.4413 112.573 11.9079 112.92 11.4679C113.28 11.0146 113.747 10.6679 114.32 10.4279C114.893 10.1746 115.507 10.0479 116.16 10.0479C116.787 10.0479 117.467 10.1813 118.2 10.4479C118.933 10.7146 119.54 11.1413 120.02 11.7279L118.84 13.0279Z" fill="#6538CD"/>
<path d="M39.81 32.1679C39.81 32.3279 39.86 32.4779 39.96 32.6179C40.0667 32.7579 40.2433 32.8279 40.49 32.8279H41.74C41.9867 32.8279 42.16 32.7679 42.26 32.6479C42.3667 32.5213 42.42 32.3779 42.42 32.2179V32.1079C42.42 31.7946 42.6033 31.6379 42.97 31.6379C43.3367 31.6379 43.52 31.7946 43.52 32.1079V32.2279C43.52 32.5079 43.4733 32.7379 43.38 32.9179C43.2933 33.0979 43.16 33.2546 42.98 33.3879C42.6267 33.6413 42.2733 33.7679 41.92 33.7679H40.24C39.8867 33.7679 39.5433 33.6413 39.21 33.3879C39.05 33.2546 38.9267 33.0879 38.84 32.8879C38.7533 32.6813 38.71 32.4446 38.71 32.1779V29.3279C38.71 28.7879 38.8767 28.3879 39.21 28.1279C39.3767 28.0079 39.5467 27.9146 39.72 27.8479C39.9 27.7746 40.0733 27.7379 40.24 27.7379H41.92C42.08 27.7379 42.2567 27.7713 42.45 27.8379C42.6433 27.8979 42.8233 27.9813 42.99 28.0879C43.15 28.2013 43.2767 28.3579 43.37 28.5579C43.47 28.7579 43.52 28.9946 43.52 29.2679V30.6179C43.52 30.7713 43.4733 30.9079 43.38 31.0279C43.2933 31.1479 43.13 31.2079 42.89 31.2079H40.73C40.49 31.2079 40.3633 31.0513 40.35 30.7379C40.35 30.4246 40.4767 30.2679 40.73 30.2679H42.43L42.42 29.3379C42.42 29.1713 42.3667 29.0213 42.26 28.8879C42.16 28.7479 41.9867 28.6779 41.74 28.6779H40.49C40.2433 28.6779 40.0667 28.7479 39.96 28.8879C39.86 29.0213 39.81 29.1713 39.81 29.3379V32.1679ZM46.834 33.8279C46.8207 33.8279 46.804 33.8246 46.784 33.8179C46.764 33.8179 46.744 33.8179 46.724 33.8179C46.6907 33.8179 46.644 33.8179 46.584 33.8179C46.524 33.8179 46.4673 33.8146 46.414 33.8079C46.3007 33.8013 46.204 33.7713 46.124 33.7179C46.044 33.6579 45.9873 33.5879 45.954 33.5079L44.274 28.3479C44.2407 28.2079 44.2573 28.0846 44.324 27.9779C44.3973 27.8646 44.5107 27.7813 44.664 27.7279C44.7107 27.7146 44.7573 27.7046 44.804 27.6979C44.8507 27.6913 44.8907 27.6879 44.924 27.6879C45.1307 27.6879 45.274 27.8013 45.354 28.0279L46.084 30.2979L46.854 32.6779L48.354 28.0279C48.4273 27.7946 48.5607 27.6779 48.754 27.6779C48.8273 27.6779 48.9207 27.6946 49.034 27.7279C49.2073 27.7746 49.3273 27.8546 49.394 27.9679C49.4607 28.0746 49.4707 28.2013 49.424 28.3479L47.754 33.5079C47.694 33.6946 47.5373 33.7946 47.284 33.8079C47.2707 33.8079 47.254 33.8079 47.234 33.8079C47.2207 33.8146 47.2073 33.8179 47.194 33.8179C47.1407 33.8246 47.094 33.8279 47.054 33.8279C47.014 33.8279 46.9773 33.8279 46.944 33.8279H46.834ZM51.4116 32.1679C51.4116 32.3279 51.4616 32.4779 51.5616 32.6179C51.6682 32.7579 51.8449 32.8279 52.0916 32.8279H53.3416C53.5882 32.8279 53.7616 32.7679 53.8616 32.6479C53.9682 32.5213 54.0216 32.3779 54.0216 32.2179V32.1079C54.0216 31.7946 54.2049 31.6379 54.5716 31.6379C54.9382 31.6379 55.1216 31.7946 55.1216 32.1079V32.2279C55.1216 32.5079 55.0749 32.7379 54.9816 32.9179C54.8949 33.0979 54.7616 33.2546 54.5816 33.3879C54.2282 33.6413 53.8749 33.7679 53.5216 33.7679H51.8416C51.4882 33.7679 51.1449 33.6413 50.8116 33.3879C50.6516 33.2546 50.5282 33.0879 50.4416 32.8879C50.3549 32.6813 50.3116 32.4446 50.3116 32.1779V29.3279C50.3116 28.7879 50.4782 28.3879 50.8116 28.1279C50.9782 28.0079 51.1482 27.9146 51.3216 27.8479C51.5016 27.7746 51.6749 27.7379 51.8416 27.7379H53.5216C53.6816 27.7379 53.8582 27.7713 54.0516 27.8379C54.2449 27.8979 54.4249 27.9813 54.5916 28.0879C54.7516 28.2013 54.8782 28.3579 54.9716 28.5579C55.0716 28.7579 55.1216 28.9946 55.1216 29.2679V30.6179C55.1216 30.7713 55.0749 30.9079 54.9816 31.0279C54.8949 31.1479 54.7316 31.2079 54.4916 31.2079H52.3316C52.0916 31.2079 51.9649 31.0513 51.9516 30.7379C51.9516 30.4246 52.0782 30.2679 52.3316 30.2679H54.0316L54.0216 29.3379C54.0216 29.1713 53.9682 29.0213 53.8616 28.8879C53.7616 28.7479 53.5882 28.6779 53.3416 28.6779H52.0916C51.8449 28.6779 51.6682 28.7479 51.5616 28.8879C51.4616 29.0213 51.4116 29.1713 51.4116 29.3379V32.1679ZM57.4955 33.3479C57.4955 33.6679 57.3122 33.8279 56.9455 33.8279C56.5789 33.8279 56.3955 33.6679 56.3955 33.3479V29.3279C56.3955 29.0546 56.4389 28.8179 56.5255 28.6179C56.6122 28.4179 56.7489 28.2546 56.9355 28.1279C57.2889 27.8746 57.6422 27.7479 57.9955 27.7479H59.6055C59.9455 27.7479 60.2989 27.8746 60.6655 28.1279C61.0255 28.3813 61.2055 28.7813 61.2055 29.3279V33.3479C61.2055 33.6679 61.0222 33.8279 60.6555 33.8279C60.2889 33.8279 60.1055 33.6679 60.1055 33.3479V29.4179C60.1055 29.2446 60.0522 29.0779 59.9455 28.9179L59.9555 28.9279C59.8689 28.7679 59.6922 28.6879 59.4255 28.6879H58.1755C57.9022 28.6879 57.7222 28.7679 57.6355 28.9279C57.5422 29.0679 57.4955 29.2313 57.4955 29.4179V33.3479ZM63.8091 28.6879V32.3279C63.8091 32.5013 63.8457 32.6346 63.9191 32.7279C63.9924 32.8213 64.1491 32.8679 64.3891 32.8679H64.6491C64.9091 32.8679 65.0324 33.0213 65.0191 33.3279C65.0191 33.6413 64.8957 33.7979 64.6491 33.7979H64.3191C64.1057 33.7979 63.9057 33.7713 63.7191 33.7179C63.5324 33.6579 63.3524 33.5746 63.1791 33.4679V33.4779C62.8524 33.2646 62.6891 32.8846 62.6891 32.3379V28.6879H62.2991C62.0591 28.6879 61.9324 28.5313 61.9191 28.2179C61.9191 27.9046 62.0457 27.7479 62.2991 27.7479H62.6891V26.6779C62.6891 26.3579 62.8791 26.1979 63.2591 26.1979C63.6257 26.1979 63.8091 26.3579 63.8091 26.6779V27.7479H64.6391C64.8991 27.7479 65.0224 27.9046 65.0091 28.2179C65.0091 28.5313 64.8857 28.6879 64.6391 28.6879H63.8091ZM69.1377 30.2679C69.3044 30.2679 69.4811 30.3079 69.6677 30.3879C69.8611 30.4613 70.0411 30.5546 70.2077 30.6679H70.1977C70.3711 30.7946 70.5044 30.9579 70.5977 31.1579C70.6911 31.3579 70.7377 31.5979 70.7377 31.8779V32.1779C70.7377 32.7246 70.5577 33.1279 70.1977 33.3879C70.0244 33.5213 69.8477 33.6179 69.6677 33.6779C69.4877 33.7379 69.3111 33.7679 69.1377 33.7679H67.4377C67.2644 33.7679 67.0877 33.7379 66.9077 33.6779C66.7277 33.6179 66.5511 33.5213 66.3777 33.3879C66.0177 33.1346 65.8377 32.7313 65.8377 32.1779V32.0579C65.8377 31.7713 66.0211 31.6313 66.3877 31.6379C66.7611 31.6379 66.9477 31.7779 66.9477 32.0579V32.1679C66.9477 32.3279 66.9977 32.4779 67.0977 32.6179C67.1977 32.7579 67.3744 32.8279 67.6277 32.8279H68.9477C69.2011 32.8279 69.3777 32.7579 69.4777 32.6179C69.5777 32.4779 69.6277 32.3279 69.6277 32.1679V31.8879C69.6277 31.8013 69.6144 31.7179 69.5877 31.6379C69.5677 31.5579 69.5311 31.4879 69.4777 31.4279C69.4244 31.3613 69.3544 31.3079 69.2677 31.2679C69.1811 31.2279 69.0744 31.2079 68.9477 31.2079H67.4877C67.1477 31.2079 66.7911 31.0879 66.4177 30.8479C66.0644 30.6213 65.8877 30.2313 65.8877 29.6779V29.3379C65.8877 29.0713 65.9344 28.8379 66.0277 28.6379C66.1211 28.4313 66.2544 28.2646 66.4277 28.1379H66.4177C66.5844 28.0246 66.7611 27.9313 66.9477 27.8579C67.1344 27.7846 67.3144 27.7479 67.4877 27.7479H69.0877C69.2611 27.7479 69.4377 27.7846 69.6177 27.8579C69.8044 27.9313 69.9844 28.0246 70.1577 28.1379H70.1477C70.3211 28.2646 70.4544 28.4313 70.5477 28.6379C70.6411 28.8379 70.6877 29.0713 70.6877 29.3379V29.4279C70.6877 29.5679 70.6411 29.6713 70.5477 29.7379C70.4544 29.7979 70.3177 29.8313 70.1377 29.8379C69.7711 29.8446 69.5877 29.7079 69.5877 29.4279V29.3479C69.5877 29.1813 69.5344 29.0313 69.4277 28.8979C69.3277 28.7579 69.1544 28.6879 68.9077 28.6879H67.6677C67.4211 28.6879 67.2444 28.7579 67.1377 28.8979C67.0377 29.0313 66.9877 29.1813 66.9877 29.3479V29.5879C66.9877 29.7613 67.0377 29.9179 67.1377 30.0579C67.2444 30.1979 67.4211 30.2679 67.6677 30.2679H69.1377Z" fill="#8257E5"/>
<g clip-path="url(#clip0)">
<path d="M14 33.7679C6.28047 33.7679 0 27.4875 0 19.7679C0 12.0484 6.28047 5.76794 14 5.76794C21.7195 5.76794 28 12.0484 28 19.7679C28 27.4875 21.7195 33.7679 14 33.7679ZM14 7.77993C7.38974 7.77993 2.01198 13.1577 2.01198 19.7679C2.01198 26.3782 7.38974 31.756 14 31.756C20.6103 31.756 25.988 26.3782 25.988 19.7679C25.988 13.1577 20.6103 7.77993 14 7.77993Z" fill="#6538CD"/>
<path d="M20.0778 16.2261L7.83835 25.783V16.2261L14.1257 9.93848V16.2261H20.0778Z" fill="#6538CD"/>
<path d="M18.4011 14.9687H15.2993V11.8669L18.4011 14.9687Z" fill="#6538CD"/>
<path d="M20.1199 17.8607L20.1617 25.6991L15.0983 22.1122L20.1199 17.8607Z" fill="#6538CD"/>
<path d="M14.1257 22.9901L17.5209 25.7409L14.1257 29.5973L10.8144 25.7409L14.1257 22.9901Z" fill="#6538CD"/>
</g>
<defs>
<clipPath id="clip0">
<rect width="28" height="28" fill="white" transform="translate(0 5.76794)"/>
</clipPath>
</defs>
</svg>
