<svg width="247" height="74" viewBox="0 0 247 74" fill="none" xmlns="http://www.w3.org/2000/svg">
<path d="M87.16 8L96.32 22.92L105.64 8H109.64V36H105.32V24.52C105.32 22.84 105.347 21.2533 105.4 19.76C105.48 18.24 105.6 16.7333 105.76 15.24L97.52 27.96H94.88L86.84 15.28C87 16.7733 87.1067 18.2667 87.16 19.76C87.2133 21.2533 87.24 22.84 87.24 24.52V36H82.92V8H87.16ZM129.17 8C131.89 8 133.944 8.6 135.33 9.8C136.717 11 137.41 12.7467 137.41 15.04C137.41 16.2933 137.104 17.4133 136.49 18.4C135.904 19.3867 135.024 20.16 133.85 20.72C134.73 21.0133 135.544 21.4667 136.29 22.08C137.064 22.6667 137.69 23.4267 138.17 24.36C138.65 25.2933 138.89 26.4267 138.89 27.76C138.89 29.3867 138.61 30.7333 138.05 31.8C137.49 32.8667 136.757 33.7067 135.85 34.32C134.944 34.9333 133.944 35.3733 132.85 35.64C131.757 35.88 130.664 36 129.57 36H117.49V8H129.17ZM128.45 12.16H121.81V19.6H128.93C130.024 19.5733 130.984 19.24 131.81 18.6C132.664 17.96 133.09 17.0533 133.09 15.88C133.09 14.5467 132.637 13.6 131.73 13.04C130.85 12.4533 129.757 12.16 128.45 12.16ZM129.13 23.76H121.81V31.84H129.33C130.85 31.84 132.09 31.5067 133.05 30.84C134.01 30.1467 134.49 29.0933 134.49 27.68C134.49 26.6667 134.21 25.88 133.65 25.32C133.09 24.76 132.397 24.36 131.57 24.12C130.77 23.88 129.957 23.76 129.13 23.76ZM173.368 31.84V36H155.928V8H160.248V31.84H173.368ZM197.612 15V36H193.452V32.76C192.812 33.64 191.865 34.4667 190.612 35.24C189.359 36.0133 187.905 36.4 186.252 36.4C184.492 36.4 182.879 35.9333 181.412 35C179.972 34.0667 178.825 32.7733 177.972 31.12C177.119 29.4667 176.692 27.5733 176.692 25.44C176.692 23.3067 177.132 21.4267 178.012 19.8C178.892 18.1467 180.105 16.8667 181.652 15.96C183.199 15.0267 184.959 14.56 186.932 14.56C188.399 14.56 189.679 14.88 190.772 15.52C191.892 16.16 192.785 16.9067 193.452 17.76V15H197.612ZM187.212 32.6C188.492 32.6 189.612 32.2933 190.572 31.68C191.532 31.04 192.279 30.1867 192.812 29.12C193.345 28.0267 193.612 26.8 193.612 25.44C193.612 24.1067 193.345 22.9067 192.812 21.84C192.279 20.7733 191.532 19.9333 190.572 19.32C189.612 18.68 188.492 18.36 187.212 18.36C185.985 18.36 184.892 18.6667 183.932 19.28C182.972 19.8933 182.225 20.7333 181.692 21.8C181.159 22.8667 180.892 24.08 180.892 25.44C180.892 26.8 181.159 28.0267 181.692 29.12C182.225 30.1867 182.972 31.04 183.932 31.68C184.892 32.2933 185.985 32.6 187.212 32.6ZM214.284 14.56C216.151 14.56 217.818 15.0267 219.284 15.96C220.778 16.8667 221.951 18.1467 222.804 19.8C223.658 21.4267 224.084 23.3067 224.084 25.44C224.084 27.5733 223.658 29.4667 222.804 31.12C221.951 32.7733 220.791 34.0667 219.324 35C217.858 35.9333 216.218 36.4 214.404 36.4C212.911 36.4 211.551 36.08 210.324 35.44C209.124 34.7733 208.178 34.0267 207.484 33.2V35.88H203.364V6.4H207.484V18.04C208.098 17.16 209.018 16.36 210.244 15.64C211.471 14.92 212.818 14.56 214.284 14.56ZM213.724 18.32C212.471 18.32 211.351 18.6267 210.364 19.24C209.404 19.8533 208.644 20.7067 208.084 21.8C207.551 22.8667 207.284 24.08 207.284 25.44C207.284 26.8 207.551 28.0267 208.084 29.12C208.644 30.1867 209.404 31.04 210.364 31.68C211.351 32.32 212.471 32.64 213.724 32.64C214.978 32.64 216.084 32.32 217.044 31.68C218.004 31.04 218.751 30.1867 219.284 29.12C219.844 28.0267 220.124 26.8 220.124 25.44C220.124 24.08 219.844 22.8667 219.284 21.8C218.751 20.7067 218.004 19.8533 217.044 19.24C216.084 18.6267 214.978 18.32 213.724 18.32ZM240.68 20.52C239.933 19.7733 239.08 19.16 238.12 18.68C237.186 18.2 236.32 17.96 235.52 17.96C234.96 17.96 234.4 18.0267 233.84 18.16C233.306 18.2933 232.853 18.5467 232.48 18.92C232.106 19.2667 231.92 19.7867 231.92 20.48C231.946 21.44 232.373 22.12 233.2 22.52C234.053 22.92 235.106 23.28 236.36 23.6C237.453 23.8933 238.52 24.2667 239.56 24.72C240.6 25.1467 241.453 25.7867 242.12 26.64C242.813 27.4667 243.16 28.64 243.16 30.16C243.16 31.4667 242.786 32.5867 242.04 33.52C241.32 34.4533 240.373 35.1733 239.2 35.68C238.053 36.16 236.84 36.4 235.56 36.4C234.04 36.4 232.533 36.1333 231.04 35.6C229.573 35.04 228.32 34.0933 227.28 32.76L230.08 30.36C230.8 31.1867 231.613 31.84 232.52 32.32C233.453 32.7733 234.586 33 235.92 33C236.426 33 236.933 32.92 237.44 32.76C237.946 32.5733 238.373 32.2933 238.72 31.92C239.093 31.52 239.28 30.9867 239.28 30.32C239.28 29.68 239.08 29.1867 238.68 28.84C238.306 28.4667 237.8 28.1733 237.16 27.96C236.52 27.72 235.813 27.5067 235.04 27.32C233.893 27 232.76 26.6133 231.64 26.16C230.546 25.68 229.626 25.0133 228.88 24.16C228.16 23.28 227.8 22.0933 227.8 20.6C227.8 19.3467 228.146 18.28 228.84 17.4C229.56 16.4933 230.493 15.8 231.64 15.32C232.786 14.8133 234.013 14.56 235.32 14.56C236.573 14.56 237.933 14.8267 239.4 15.36C240.866 15.8933 242.08 16.7467 243.04 17.92L240.68 20.52Z" fill="#F7F8FA"/>
<path d="M83.525 63C83.525 63.4 83.65 63.775 83.9 64.125C84.1667 64.475 84.6083 64.65 85.225 64.65H88.35C88.9667 64.65 89.4 64.5 89.65 64.2C89.9167 63.8833 90.05 63.525 90.05 63.125V62.85C90.05 62.0667 90.5083 61.675 91.425 61.675C92.3417 61.675 92.8 62.0667 92.8 62.85V63.15C92.8 63.85 92.6833 64.425 92.45 64.875C92.2333 65.325 91.9 65.7167 91.45 66.05C90.5667 66.6833 89.6833 67 88.8 67H84.6C83.7167 67 82.8583 66.6833 82.025 66.05C81.625 65.7167 81.3167 65.3 81.1 64.8C80.8833 64.2833 80.775 63.6917 80.775 63.025V55.9C80.775 54.55 81.1917 53.55 82.025 52.9C82.4417 52.6 82.8667 52.3667 83.3 52.2C83.75 52.0167 84.1833 51.925 84.6 51.925H88.8C89.2 51.925 89.6417 52.0083 90.125 52.175C90.6083 52.325 91.0583 52.5333 91.475 52.8C91.875 53.0833 92.1917 53.475 92.425 53.975C92.675 54.475 92.8 55.0667 92.8 55.75V59.125C92.8 59.5083 92.6833 59.85 92.45 60.15C92.2333 60.45 91.825 60.6 91.225 60.6H85.825C85.225 60.6 84.9083 60.2083 84.875 59.425C84.875 58.6417 85.1917 58.25 85.825 58.25H90.075L90.05 55.925C90.05 55.5083 89.9167 55.1333 89.65 54.8C89.4 54.45 88.9667 54.275 88.35 54.275H85.225C84.6083 54.275 84.1667 54.45 83.9 54.8C83.65 55.1333 83.525 55.5083 83.525 55.925V63ZM101.085 67.15C101.052 67.15 101.01 67.1417 100.96 67.125C100.91 67.125 100.86 67.125 100.81 67.125C100.727 67.125 100.61 67.125 100.46 67.125C100.31 67.125 100.168 67.1167 100.035 67.1C99.7516 67.0833 99.51 67.0083 99.31 66.875C99.11 66.725 98.9683 66.55 98.885 66.35L94.685 53.45C94.6016 53.1 94.6433 52.7917 94.81 52.525C94.9933 52.2417 95.2766 52.0333 95.66 51.9C95.7766 51.8667 95.8933 51.8417 96.01 51.825C96.1266 51.8083 96.2266 51.8 96.31 51.8C96.8266 51.8 97.185 52.0833 97.385 52.65L99.21 58.325L101.135 64.275L104.885 52.65C105.068 52.0667 105.402 51.775 105.885 51.775C106.068 51.775 106.302 51.8167 106.585 51.9C107.018 52.0167 107.318 52.2167 107.485 52.5C107.652 52.7667 107.677 53.0833 107.56 53.45L103.385 66.35C103.235 66.8167 102.843 67.0667 102.21 67.1C102.177 67.1 102.135 67.1 102.085 67.1C102.052 67.1167 102.018 67.125 101.985 67.125C101.852 67.1417 101.735 67.15 101.635 67.15C101.535 67.15 101.443 67.15 101.36 67.15H101.085ZM112.529 63C112.529 63.4 112.654 63.775 112.904 64.125C113.171 64.475 113.612 64.65 114.229 64.65H117.354C117.971 64.65 118.404 64.5 118.654 64.2C118.921 63.8833 119.054 63.525 119.054 63.125V62.85C119.054 62.0667 119.512 61.675 120.429 61.675C121.346 61.675 121.804 62.0667 121.804 62.85V63.15C121.804 63.85 121.687 64.425 121.454 64.875C121.237 65.325 120.904 65.7167 120.454 66.05C119.571 66.6833 118.687 67 117.804 67H113.604C112.721 67 111.862 66.6833 111.029 66.05C110.629 65.7167 110.321 65.3 110.104 64.8C109.887 64.2833 109.779 63.6917 109.779 63.025V55.9C109.779 54.55 110.196 53.55 111.029 52.9C111.446 52.6 111.871 52.3667 112.304 52.2C112.754 52.0167 113.187 51.925 113.604 51.925H117.804C118.204 51.925 118.646 52.0083 119.129 52.175C119.612 52.325 120.062 52.5333 120.479 52.8C120.879 53.0833 121.196 53.475 121.429 53.975C121.679 54.475 121.804 55.0667 121.804 55.75V59.125C121.804 59.5083 121.687 59.85 121.454 60.15C121.237 60.45 120.829 60.6 120.229 60.6H114.829C114.229 60.6 113.912 60.2083 113.879 59.425C113.879 58.6417 114.196 58.25 114.829 58.25H119.079L119.054 55.925C119.054 55.5083 118.921 55.1333 118.654 54.8C118.404 54.45 117.971 54.275 117.354 54.275H114.229C113.612 54.275 113.171 54.45 112.904 54.8C112.654 55.1333 112.529 55.5083 112.529 55.925V63ZM127.739 65.95C127.739 66.75 127.281 67.15 126.364 67.15C125.447 67.15 124.989 66.75 124.989 65.95V55.9C124.989 55.2167 125.097 54.625 125.314 54.125C125.531 53.625 125.872 53.2167 126.339 52.9C127.222 52.2667 128.106 51.95 128.989 51.95H133.014C133.864 51.95 134.747 52.2667 135.664 52.9C136.564 53.5333 137.014 54.5333 137.014 55.9V65.95C137.014 66.75 136.556 67.15 135.639 67.15C134.722 67.15 134.264 66.75 134.264 65.95V56.125C134.264 55.6917 134.131 55.275 133.864 54.875L133.889 54.9C133.672 54.5 133.231 54.3 132.564 54.3H129.439C128.756 54.3 128.306 54.5 128.089 54.9C127.856 55.25 127.739 55.6583 127.739 56.125V65.95ZM143.523 54.3V63.4C143.523 63.8333 143.614 64.1667 143.798 64.4C143.981 64.6333 144.373 64.75 144.973 64.75H145.623C146.273 64.75 146.581 65.1333 146.548 65.9C146.548 66.6833 146.239 67.075 145.623 67.075H144.798C144.264 67.075 143.764 67.0083 143.298 66.875C142.831 66.725 142.381 66.5167 141.948 66.25V66.275C141.131 65.7417 140.723 64.7917 140.723 63.425V54.3H139.748C139.148 54.3 138.831 53.9083 138.798 53.125C138.798 52.3417 139.114 51.95 139.748 51.95H140.723V49.275C140.723 48.475 141.198 48.075 142.148 48.075C143.064 48.075 143.523 48.475 143.523 49.275V51.95H145.598C146.248 51.95 146.556 52.3417 146.523 53.125C146.523 53.9083 146.214 54.3 145.598 54.3H143.523ZM156.844 58.25C157.261 58.25 157.703 58.35 158.169 58.55C158.653 58.7333 159.103 58.9667 159.519 59.25H159.494C159.928 59.5667 160.261 59.975 160.494 60.475C160.728 60.975 160.844 61.575 160.844 62.275V63.025C160.844 64.3917 160.394 65.4 159.494 66.05C159.061 66.3833 158.619 66.625 158.169 66.775C157.719 66.925 157.278 67 156.844 67H152.594C152.161 67 151.719 66.925 151.269 66.775C150.819 66.625 150.378 66.3833 149.944 66.05C149.044 65.4167 148.594 64.4083 148.594 63.025V62.725C148.594 62.0083 149.053 61.6583 149.969 61.675C150.903 61.675 151.369 62.025 151.369 62.725V63C151.369 63.4 151.494 63.775 151.744 64.125C151.994 64.475 152.436 64.65 153.069 64.65H156.369C157.003 64.65 157.444 64.475 157.694 64.125C157.944 63.775 158.069 63.4 158.069 63V62.3C158.069 62.0833 158.036 61.875 157.969 61.675C157.919 61.475 157.828 61.3 157.694 61.15C157.561 60.9833 157.386 60.85 157.169 60.75C156.953 60.65 156.686 60.6 156.369 60.6H152.719C151.869 60.6 150.978 60.3 150.044 59.7C149.161 59.1333 148.719 58.1583 148.719 56.775V55.925C148.719 55.2583 148.836 54.675 149.069 54.175C149.303 53.6583 149.636 53.2417 150.069 52.925H150.044C150.461 52.6417 150.903 52.4083 151.369 52.225C151.836 52.0417 152.286 51.95 152.719 51.95H156.719C157.153 51.95 157.594 52.0417 158.044 52.225C158.511 52.4083 158.961 52.6417 159.394 52.925H159.369C159.803 53.2417 160.136 53.6583 160.369 54.175C160.603 54.675 160.719 55.2583 160.719 55.925V56.15C160.719 56.5 160.603 56.7583 160.369 56.925C160.136 57.075 159.794 57.1583 159.344 57.175C158.428 57.1917 157.969 56.85 157.969 56.15V55.95C157.969 55.5333 157.836 55.1583 157.569 54.825C157.319 54.475 156.886 54.3 156.269 54.3H153.169C152.553 54.3 152.111 54.475 151.844 54.825C151.594 55.1583 151.469 55.5333 151.469 55.95V56.55C151.469 56.9833 151.594 57.375 151.844 57.725C152.111 58.075 152.553 58.25 153.169 58.25H156.844Z" fill="#E6E8EB"/>
<path d="M37 67C20.4582 67 7 53.5418 7 37C7 20.4582 20.4582 7 37 7C53.5418 7 67 20.4582 67 37C67 53.5418 53.5418 67 37 67ZM37 11.3114C22.8352 11.3114 11.3114 22.8352 11.3114 37C11.3114 51.1648 22.8352 62.6886 37 62.6886C51.1648 62.6886 62.6886 51.1648 62.6886 37C62.6886 22.8352 51.1648 11.3114 37 11.3114Z" fill="white"/>
<path d="M50.0238 29.4104L23.7965 49.8893V29.4104L37.2694 15.9369V29.4104H50.0238Z" fill="white"/>
<path d="M46.4309 26.7158H39.7843V20.0692L46.4309 26.7158Z" fill="white"/>
<path d="M50.114 32.9132L50.2036 49.7097L39.3535 42.0234L50.114 32.9132Z" fill="white"/>
<path d="M37.2694 43.9047L44.5448 49.7992L37.2694 58.063L30.1737 49.7992L37.2694 43.9047Z" fill="white"/>
</svg>
