<svg width="70" height="70" viewBox="0 0 70 70" fill="none" xmlns="http://www.w3.org/2000/svg">
<path d="M35 70C15.7012 70 0 54.2988 0 35C0 15.7012 15.7012 0 35 0C54.2988 0 70 15.7012 70 35C70 54.2988 54.2988 70 35 70ZM35 5.02996C18.4744 5.02996 5.02996 18.4744 5.02996 35C5.02996 51.5256 18.4744 64.97 35 64.97C51.5256 64.97 64.97 51.5256 64.97 35C64.97 18.4744 51.5256 5.02996 35 5.02996Z" fill="white"/>
<path d="M50.1945 26.1454L19.5959 50.0376V26.1454L35.3143 10.4264V26.1454H50.1945Z" fill="white"/>
<path d="M46.0026 23.0016H38.2483V15.2473L46.0026 23.0016Z" fill="white"/>
<path d="M50.2995 30.232L50.4041 49.8279L37.7456 40.8606L50.2995 30.232Z" fill="white"/>
<path d="M35.3142 43.0555L43.8022 49.9324L35.3142 59.5736L27.0359 49.9324L35.3142 43.0555Z" fill="white"/>
</svg>
