<svg width="58" height="58" viewBox="0 0 58 58" fill="none" xmlns="http://www.w3.org/2000/svg">
<path fill-rule="evenodd" clip-rule="evenodd" d="M14.5 26.1V20.3C14.5 16.4544 16.0276 12.7663 18.7469 10.047C21.4662 7.32772 25.1543 5.80005 29 5.80005C32.8456 5.80005 36.5337 7.32772 39.253 10.047C41.9723 12.7663 43.5 16.4544 43.5 20.3V26.1C45.0382 26.1 46.5135 26.7111 47.6012 27.7988C48.6889 28.8865 49.3 30.3618 49.3 31.9V46.4C49.3 47.9383 48.6889 49.4136 47.6012 50.5013C46.5135 51.589 45.0382 52.2 43.5 52.2H14.5C12.9617 52.2 11.4864 51.589 10.3987 50.5013C9.31102 49.4136 8.69995 47.9383 8.69995 46.4V31.9C8.69995 30.3618 9.31102 28.8865 10.3987 27.7988C11.4864 26.7111 12.9617 26.1 14.5 26.1V26.1ZM37.7 20.3V26.1H20.3V20.3C20.3 17.9927 21.2166 15.7798 22.8481 14.1482C24.4797 12.5167 26.6926 11.6 29 11.6C31.3073 11.6 33.5202 12.5167 35.1518 14.1482C36.7833 15.7798 37.7 17.9927 37.7 20.3V20.3Z" fill="#8257E5"/>
</svg>
